Coordinates
version=1
nRows=13
nColumns=40
inDegrees=yes

Units are S.I. units (second, meters, Newtons, ...)
Angles are in degrees.

endheader
time	pelvis_tilt	pelvis_list	pelvis_rotation	pelvis_tx	pelvis_ty	pelvis_tz	hip_flexion_r	hip_adduction_r	hip_rotation_r	knee_angle_r	knee_angle_r_beta	ankle_angle_r	subtalar_angle_r	mtp_angle_r	hip_flexion_l	hip_adduction_l	hip_rotation_l	knee_angle_l	knee_angle_l_beta	ankle_angle_l	subtalar_angle_l	mtp_angle_l	lumbar_extension	lumbar_bending	lumbar_rotation	arm_flex_r	arm_add_r	arm_rot_r	elbow_flex_r	pro_sup_r	wrist_flex_r	wrist_dev_r	arm_flex_l	arm_add_l	arm_rot_l	elbow_flex_l	pro_sup_l	wrist_flex_l	wrist_dev_l
      0.28000000	     -3.37188979	     -3.63092534	      1.63334362	      0.92001649	      0.92020446	      0.43237003	     19.16792807	     -7.95604400	     -8.33990303	     64.19226553	     64.19226553	      0.85692782	    -19.50760579	     16.23362042	     17.79053735	     -0.22701631	     -0.13583600	     29.90988599	     29.90988599	     18.37474540	    -17.47485430	      8.86405751	    -10.00295358	      3.93920346	      3.42167434	     25.66595328	    -13.53852029	     -8.80238402	     33.26024844	     45.26381038	      0.00000000	      0.00000000	     13.19024673	    -12.63529424	     12.46525261	     30.30748699	     44.39301874	      0.00000000	      0.00000000
      0.29964286	     -3.10339309	     -3.62575754	      1.11437355	      0.91936811	      0.91826000	      0.43062949	     20.33957845	     -7.82535558	     -7.73544436	     65.60744487	     65.60744487	      1.83263346	    -19.52425160	     16.34806212	     17.58163223	     -0.20572098	     -0.50069350	     30.92532483	     30.92532483	     19.22379541	    -17.66928648	      8.65282572	    -10.18614448	      4.27432720	      3.48844183	     22.50970054	    -13.20699950	     -8.93175965	     31.52961788	     45.33476660	      0.00000000	      0.00000000	     14.76262197	    -12.87134068	     12.10423717	     31.78318510	     44.49026740	      0.00000000	      0.00000000
      0.31928571	     -2.80864608	     -3.62186154	      0.59941041	      0.91862733	      0.91654915	      0.42898693	     21.53555345	     -7.57528718	     -7.06953672	     66.88224686	     66.88224686	      3.39112384	    -19.52515415	     18.38653520	     17.30732693	     -0.17964974	     -0.86325520	     31.89592457	     31.89592457	     20.32979383	    -17.74647790	      9.27601187	    -10.45572942	      4.61726819	      3.23131268	     19.79850741	    -12.60920822	     -9.83398639	     28.97758631	     45.54924355	      0.00000000	      0.00000000	     15.80075823	    -13.42476704	     11.22535715	     34.54974111	     44.72805025	      0.00000000	      0.00000000
      0.33892857	     -2.52499160	     -3.61398805	      0.11383282	      0.91793885	      0.91513194	      0.42739772	     22.57385598	     -7.36777596	     -6.58862111	     67.66013908	     67.66013908	      4.38172640	    -19.52693079	     18.16246651	     16.89061789	     -0.14627624	     -1.23217204	     32.56573932	     32.56573932	     21.04212351	    -17.86356819	      9.01082633	    -10.69356777	      4.96744412	      3.10935532	     16.72538041	    -12.31066243	     -9.88394588	     27.33108873	     45.60636349	      0.00000000	      0.00000000	     17.47250692	    -13.77567403	     10.85634284	     35.70374576	     44.81321253	      0.00000000	      0.00000000
      0.35857143	     -2.32315830	     -3.65385123	     -0.40022335	      0.91720047	      0.91426170	      0.42613711	     23.57894603	     -7.06697174	     -6.20569024	     67.89357007	     67.89357007	      5.40659067	    -19.51567107	     18.22451522	     16.44179902	     -0.20079634	     -1.68863112	     32.99479768	     32.99479768	     21.62495097	    -17.88795786	      8.92012816	    -10.91800479	      5.32878932	      3.40634525	     13.50505832	    -12.28717551	    -10.02678425	     25.44389712	     45.68524682	      0.00000000	      0.00000000	     19.16995975	    -13.91617884	     10.34141947	     37.35462617	     44.92036230	      0.00000000	      0.00000000
      0.37821429	     -2.14661936	     -3.73290703	     -0.89536015	      0.91641432	      0.91405016	      0.42515642	     24.46715071	     -6.66790829	     -5.88575588	     67.54000896	     67.54000896	      6.46675597	    -19.49861794	     18.34052263	     15.84067699	     -0.29574409	     -2.10599932	     33.05934067	     33.05934067	     22.06036153	    -17.85636408	      8.94499171	    -11.15210027	      5.72139093	      3.41821371	     10.52059807	    -12.20548991	    -10.27850026	     23.81785541	     45.76785287	      0.00000000	      0.00000000	     20.59910045	    -14.20925634	      9.68976109	     39.04725723	     45.03933893	      0.00000000	      0.00000000
      0.39785714	     -2.05705612	     -3.82347125	     -1.38088079	      0.91562530	      0.91440010	      0.42453808	     25.26899345	     -6.23278587	     -5.66175180	     66.55332282	     66.55332282	      7.50736136	    -19.46744747	     18.31133175	     15.17957800	     -0.42944011	     -2.57307935	     32.82221452	     32.82221452	     22.39621288	    -17.74033313	      8.96462183	    -11.29126340	      6.09959617	      3.31705137	      7.69967554	    -12.12776951	    -10.66948262	     22.50606686	     45.85737323	      0.00000000	      0.00000000	     21.82251648	    -14.57845938	      8.80064614	     40.95910698	     45.18364404	      0.00000000	      0.00000000
      0.41750000	     -2.04031245	     -3.94284742	     -1.85402761	      0.91473417	      0.91537722	      0.42427180	     25.94939189	     -5.75339197	     -5.52035306	     64.88428813	     64.88428813	      8.37438208	    -19.40579949	     17.99668496	     14.43133364	     -0.59463603	     -3.01105117	     32.23705825	     32.23705825	     22.52301662	    -17.59859335	      8.97770446	    -11.37597127	      6.49694321	      3.07031152	      5.01048813	    -12.08626084	    -11.09132444	     21.56243523	     45.93476586	      0.00000000	      0.00000000	     22.89657021	    -14.99967017	      7.82021977	     42.81704740	     45.32955089	      0.00000000	      0.00000000
      0.43714286	     -2.09581293	     -4.09470356	     -2.35429878	      0.91372918	      0.91685934	      0.42445125	     26.51082071	     -5.19256300	     -5.39003874	     62.57710650	     62.57710650	      9.02886188	    -19.31823464	     17.31401668	     13.62110012	     -0.82570621	     -3.51356064	     31.36634697	     31.36634697	     22.49915725	    -17.38571511	      8.92892442	    -11.43157115	      6.87444537	      2.81742414	      2.41331485	    -12.12146913	    -11.59454803	     20.98917603	     46.00641266	      0.00000000	      0.00000000	     23.83389906	    -15.41169024	      6.65030021	     44.85792444	     45.49167312	      0.00000000	      0.00000000
      0.45678571	     -2.26586770	     -4.24731601	     -2.87638738	      0.91258571	      0.91864725	      0.42502757	     26.97207574	     -4.62267616	     -5.29391950	     59.63395333	     59.63395333	      9.38156420	    -19.15951675	     15.93563539	     12.82832392	     -1.08959488	     -4.09614970	     30.26762708	     30.26762708	     22.28021994	    -17.08835508	      8.71601888	    -11.41160933	      7.22931278	      2.56332498	     -0.12791462	    -12.14782062	    -12.29856564	     20.95476807	     46.07998253	      0.00000000	      0.00000000	     24.51494653	    -15.89649797	      5.04131740	     47.31458829	     45.69769826	      0.00000000	      0.00000000
      0.47642857	     -2.57875680	     -4.44747692	     -3.40517179	      0.91130362	      0.92048660	      0.42599312	     27.28926865	     -4.03211219	     -5.32071848	     55.99065644	     55.99065644	      8.66028809	    -18.97364750	     11.61044385	     12.09114896	     -1.42749487	     -4.69922982	     28.94106996	     28.94106996	     21.68932052	    -16.81861037	      7.75905439	    -11.33467041	      7.60635227	      1.76305623	     -2.59601603	    -12.14145366	    -13.99248174	     22.31943640	     46.22630018	      0.00000000	      0.00000000	     24.25249080	    -16.40710987	      1.66717410	     51.14277038	     46.09881835	      0.00000000	      0.00000000
      0.49607143	     -2.87600844	     -4.67898864	     -3.98186422	      0.90990800	      0.92256240	      0.42738348	     27.49619939	     -3.26957593	     -5.13545939	     52.09070756	     52.09070756	      8.93741354	    -18.45077851	     11.21359680	     11.29046667	     -1.79659103	     -5.29617252	     27.56730090	     27.56730090	     21.48472743	    -16.40446126	      7.95935035	    -11.17347337	      8.02262355	      1.48214082	     -4.46070404	    -12.36072036	    -14.20479828	     21.80000535	     46.26129266	      0.00000000	      0.00000000	     25.25084242	    -16.96662504	      1.13165725	     52.11814161	     46.17202382	      0.00000000	      0.00000000
      0.51571429	     -3.31112421	     -4.87963064	     -4.56973462	      0.90832716	      0.92428648	      0.42919770	     27.68467381	     -2.58603157	     -5.05415295	     47.91610070	     47.91610070	      9.16936155	    -17.38020571	     10.64055457	     10.64648328	     -2.16875261	     -5.96599687	     26.19010998	     26.19010998	     21.27755465	    -15.93060654	      8.07232402	    -10.91926322	      8.35456011	      1.33756754	     -6.28955677	    -12.54146929	    -14.42942886	     21.51484133	     46.28439053	      0.00000000	      0.00000000	     26.26228832	    -17.59469205	      0.51363395	     53.36361996	     46.25295329	      0.00000000	      0.00000000
